<svg width="20" height="17" viewBox="0 0 20 17" fill="none" xmlns="http://www.w3.org/2000/svg">
<path d="M9.5 17C8.66667 17 7.95833 16.7083 7.375 16.125C6.79167 15.5417 6.5 14.8333 6.5 14H8.5C8.5 14.2833 8.596 14.521 8.788 14.713C8.98 14.905 9.21733 15.0007 9.5 15C9.78267 14.9993 10.0203 14.9033 10.213 14.712C10.4057 14.5207 10.5013 14.2833 10.5 14C10.4987 13.7167 10.4027 13.4793 10.212 13.288C10.0213 13.0967 9.784 13.0007 9.5 13H0V11H9.5C10.3333 11 11.0417 11.2917 11.625 11.875C12.2083 12.4583 12.5 13.1667 12.5 14C12.5 14.8333 12.2083 15.5417 11.625 16.125C11.0417 16.7083 10.3333 17 9.5 17ZM0 7V5H13.5C13.9333 5 14.2917 4.85833 14.575 4.575C14.8583 4.29167 15 3.93333 15 3.5C15 3.06667 14.8583 2.70833 14.575 2.425C14.2917 2.14167 13.9333 2 13.5 2C13.0667 2 12.7083 2.14167 12.425 2.425C12.1417 2.70833 12 3.06667 12 3.5H10C10 2.51667 10.3377 1.68733 11.013 1.012C11.6883 0.336668 12.5173 -0.00066568 13.5 9.86193e-07C14.4827 0.000667653 15.312 0.338334 15.988 1.013C16.664 1.68767 17.0013 2.51667 17 3.5C16.9987 4.48333 16.6613 5.31267 15.988 5.988C15.3147 6.66333 14.4853 7.00067 13.5 7H0ZM16.5 15V13C16.9333 13 17.2917 12.8583 17.575 12.575C17.8583 12.2917 18 11.9333 18 11.5C18 11.0667 17.8583 10.7083 17.575 10.425C17.2917 10.1417 16.9333 10 16.5 10H0V8H16.5C17.4833 8 18.3127 8.33767 18.988 9.013C19.6633 9.68833 20.0007 10.5173 20 11.5C19.9993 12.4827 19.662 13.312 18.988 13.988C18.314 14.664 17.4847 15.0013 16.5 15Z" fill="white"/>
</svg>
