<svg width="23" height="17" viewBox="0 0 23 17" fill="none" xmlns="http://www.w3.org/2000/svg">
<path d="M22.1248 15.0871C22.5617 13.3703 22.6179 11.5707 22.2889 9.82742C21.9598 8.08415 21.2545 6.44397 20.2274 5.0338C19.2002 3.62362 17.8789 2.48126 16.3655 1.69508C14.8522 0.908907 13.1874 0.5 11.5 0.5C9.8126 0.5 8.14783 0.908907 6.63447 1.69508C5.12112 2.48126 3.79976 3.62362 2.77264 5.0338C1.74551 6.44397 1.04015 8.08415 0.711133 9.82742C0.382115 11.5707 0.438259 13.3703 0.875222 15.0871" stroke="white" stroke-linecap="round"/>
<path d="M12.4364 12.8366C13.0316 13.7506 12.6124 15.1436 11.5001 15.9482C10.3879 16.7542 9.00315 16.6666 8.40793 15.7538C7.77237 14.7806 5.57971 9.30781 4.24871 5.92194C3.99815 5.28467 4.73759 4.74911 5.21426 5.22416C7.73693 7.74747 11.802 11.8633 12.4364 12.8366Z" stroke="white"/>
<path d="M11.5003 0.500732V3.07554M3.72204 3.89433L5.45027 5.71472M19.2785 3.89433L17.5503 5.71472M22.125 15.087L19.7649 14.4202M0.875488 15.087L3.2356 14.4202" stroke="white" stroke-linecap="round"/>
</svg>
