<svg width="13" height="23" viewBox="0 0 13 23" fill="none" xmlns="http://www.w3.org/2000/svg">
<path fill-rule="evenodd" clip-rule="evenodd" d="M13 16.6756C12.9998 17.7452 12.721 18.7973 12.1895 19.7335C11.658 20.6697 10.8912 21.4595 9.96077 22.0289C9.03039 22.5984 7.9668 22.929 6.86945 22.9898C5.7721 23.0506 4.67683 22.8396 3.68603 22.3765C2.69524 21.9135 1.8413 21.2135 1.20403 20.3421C0.566766 19.4706 0.166997 18.4562 0.0421022 17.3935C-0.0827926 16.3309 0.0712649 15.2547 0.489872 14.2658C0.908478 13.2768 1.57796 12.4073 2.43573 11.7385C2.74773 11.4958 2.95455 11.1393 2.95455 10.7495V3.45013C2.95455 2.5351 3.32808 1.65755 3.99299 1.01052C4.65789 0.363495 5.55969 0 6.5 0C7.44031 0 8.34211 0.363495 9.00702 1.01052C9.67192 1.65755 10.0455 2.5351 10.0455 3.45013V10.7506C10.0455 11.1393 10.2523 11.4958 10.5643 11.7396C11.325 12.3317 11.939 13.0828 12.3606 13.9373C12.7823 14.7918 13.0008 15.7277 13 16.6756ZM6.5 2.5876C6.73508 2.5876 6.96053 2.67847 7.12675 2.84023C7.29298 3.00199 7.38636 3.22137 7.38636 3.45013V13.0875C7.38636 13.5901 7.73736 14.0167 8.164 14.2996C8.68585 14.6458 9.07999 15.1455 9.28864 15.7255C9.49728 16.3056 9.50945 16.9354 9.32335 17.5227C9.13724 18.1099 8.76267 18.6237 8.25455 18.9887C7.74644 19.3536 7.13153 19.5505 6.5 19.5505C5.86847 19.5505 5.25356 19.3536 4.74544 18.9887C4.23733 18.6237 3.86276 18.1099 3.67665 17.5227C3.49055 16.9354 3.50272 16.3056 3.71136 15.7255C3.92001 15.1455 4.31416 14.6458 4.836 14.2996C5.26146 14.0167 5.61364 13.5901 5.61364 13.0875V3.45013C5.61364 3.22137 5.70702 3.00199 5.87325 2.84023C6.03947 2.67847 6.26492 2.5876 6.5 2.5876Z" fill="white"/>
</svg>
