<svg width="22" height="21" viewBox="0 0 22 21" fill="none" xmlns="http://www.w3.org/2000/svg">
<path d="M4.75 16.7502C3.344 15.8132 2.555 14.7152 2.144 13.6982C1.856 12.9882 1.712 12.6322 2.009 12.1912C2.307 11.7502 2.788 11.7502 3.75 11.7502H17.75C18.712 11.7502 19.193 11.7502 19.49 12.1912C19.788 12.6322 19.644 12.9882 19.356 13.6982C18.944 14.7152 18.156 15.8122 16.75 16.7502M12.75 11.7502V0.750194M0.75 19.7502H20.75M14.592 2.21519L16.66 5.06019C17.529 6.25419 17.963 6.85119 17.645 7.30019C17.327 7.74919 16.471 7.75019 14.758 7.75019H9.378C7.192 7.75019 6.098 7.75019 5.811 7.21119C5.523 6.6732 6.272 6.02919 7.771 4.74119L11.081 1.89619C12.006 1.10219 12.469 0.704194 13.017 0.754194C13.566 0.804194 13.907 1.27519 14.592 2.21519Z" stroke="white" stroke-width="1.5" stroke-linecap="round"/>
</svg>
