<svg width="129" height="101" viewBox="0 0 129 101" fill="none" xmlns="http://www.w3.org/2000/svg">
<path d="M122.938 50.1244C119.381 63.8533 99.6321 74.9071 90.7397 76.4672C83.6257 93.9402 64.5071 95.5899 55.6147 94.0297L67.323 76.4672C54.2808 75.2191 38.1262 61.6992 32.198 55.9788C24.5469 64.3219 12.2765 70.8496 5.85425 73.4497C16.5251 50.9846 10.3005 30.5413 5.85425 23.7809C14.1538 23.7809 26.7639 33.2161 32.198 38.4163C38.1262 32.1758 58.4305 23.4525 67.323 20.8526L55.6147 6.21749C78.1421 3.72131 88.2695 14.613 90.7397 20.8535C113.267 25.846 121.949 43.364 122.938 50.1244Z" fill="#2F88FF" stroke="black" stroke-width="11.7083" stroke-linecap="round" stroke-linejoin="round"/>
<path d="M99.5209 55.9785C102.754 55.9785 105.375 53.3575 105.375 50.1244C105.375 46.8912 102.754 44.2702 99.5209 44.2702C96.2877 44.2702 93.6667 46.8912 93.6667 50.1244C93.6667 53.3575 96.2877 55.9785 99.5209 55.9785Z" fill="white"/>
</svg>
